<svg xmlns="http://www.w3.org/2000/svg" viewBox="0 0 1600 780" role="img" aria-label="Brands we work with page artwork">
  <defs>
    <linearGradient id="bg" x1="0" y1="0" x2="1" y2="1"><stop offset="0" stop-color="#0059ff"/><stop offset=".55" stop-color="#0078ff"/><stop offset="1" stop-color="#002e98"/></linearGradient>
    <radialGradient id="glow" cx="66%" cy="40%" r="66%"><stop offset="0" stop-color="#49c8ff" stop-opacity=".45"/><stop offset="1" stop-color="#001438" stop-opacity="0"/></radialGradient>
  </defs>
  <rect width="1600" height="780" fill="url(#bg)"/>
  <rect width="1600" height="780" fill="url(#glow)"/>
  <rect x="18" y="18" width="1564" height="744" fill="none" stroke="#00337f" stroke-width="2" opacity=".55"/>
  <g font-family="Montserrat, Arial, sans-serif" fill="#fff">
    <text x="92" y="220" font-size="15" font-weight="800" letter-spacing="6" opacity=".75">COLLABORATIONS</text>
    <rect x="92" y="246" width="42" height="4" rx="2" fill="#6fdcff" opacity=".8"/>
    <text x="92" y="310" font-size="62" font-weight="800" letter-spacing="-2">Brands</text>
    <text x="92" y="380" font-size="62" font-weight="800" letter-spacing="-2">We Work With</text>
    <text x="92" y="448" font-size="18" font-weight="700">Proud to partner with ambitious</text>
    <text x="92" y="483" font-size="18" font-weight="700">brands and organizations.</text>
    <text x="92" y="518" font-size="18" font-weight="700">Building trust. Creating impact.</text>
    <rect x="92" y="602" width="236" height="58" rx="29" fill="none" stroke="#fff" stroke-width="2" opacity=".82"/>
    <text x="128" y="638" font-size="18" font-weight="800">-</text>
    <text x="174" y="638" font-size="13" font-weight="800" letter-spacing="1.5">WORK WITH US</text>
  </g>
  <g font-family="Montserrat, Arial, sans-serif" fill="#fff" opacity=".94">
    <rect x="620" y="180" width="280" height="132" rx="14" fill="none" stroke="#fff" opacity=".22"/><text x="690" y="257" font-size="44" font-weight="800">UDC</text>
    <rect x="922" y="180" width="280" height="132" rx="14" fill="none" stroke="#fff" opacity=".22"/><text x="984" y="252" font-size="42" font-weight="800">FESCO</text>
    <rect x="1224" y="180" width="280" height="132" rx="14" fill="none" stroke="#fff" opacity=".22"/><text x="1280" y="258" font-size="28" font-weight="700" letter-spacing="3">PANOPTICA</text>
    <rect x="620" y="342" width="280" height="132" rx="14" fill="none" stroke="#fff" opacity=".22"/><text x="704" y="420" font-size="28" font-weight="800">ENERSAVE</text>
    <rect x="922" y="342" width="280" height="132" rx="14" fill="none" stroke="#fff" opacity=".22"/><text x="968" y="420" font-size="26" font-weight="800">REAL ESTATE</text>
    <rect x="1224" y="342" width="280" height="132" rx="14" fill="none" stroke="#fff" opacity=".22"/><text x="1308" y="420" font-size="30" font-weight="800">WENZ</text>
    <rect x="620" y="504" width="280" height="132" rx="14" fill="none" stroke="#fff" opacity=".22"/><text x="690" y="582" font-size="42" font-weight="500">KACE</text>
    <rect x="922" y="504" width="280" height="132" rx="14" fill="none" stroke="#fff" opacity=".22"/><text x="972" y="582" font-size="28" font-weight="800">LIONHEARTS</text>
    <rect x="1224" y="504" width="280" height="132" rx="14" fill="none" stroke="#fff" opacity=".22"/><text x="1310" y="582" font-size="28" font-weight="800">STUDIO</text>
    <text x="680" y="710" font-size="20" font-weight="700" opacity=".9">Great work happens when vision and creativity connect.</text>
  </g>
</svg>
