<svg xmlns="http://www.w3.org/2000/svg" viewBox="0 0 1200 700" role="img" aria-label="Brand Partners">
  <defs>
    <linearGradient id="bg" x1="0" y1="0" x2="1" y2="1"><stop offset="0" stop-color="#092b68"/><stop offset=".52" stop-color="#0057ff"/><stop offset="1" stop-color="#69d8ff"/></linearGradient>
    <radialGradient id="orb" cx="72%" cy="18%" r="60%"><stop offset="0" stop-color="#fddb3a" stop-opacity=".9"/><stop offset=".38" stop-color="#fddb3a" stop-opacity=".18"/><stop offset="1" stop-color="#fddb3a" stop-opacity="0"/></radialGradient>
    <filter id="shadow" x="-20%" y="-20%" width="140%" height="150%"><feDropShadow dx="0" dy="26" stdDeviation="24" flood-color="#00112a" flood-opacity=".42"/></filter>
  </defs>
  <rect width="1200" height="700" rx="64" fill="url(#bg)"/>
  <rect width="1200" height="700" rx="64" fill="url(#orb)"/>
  <circle cx="990" cy="120" r="78" fill="#fddb3a"/>
  <circle cx="1056" cy="566" r="180" fill="#ffffff" opacity=".08"/>
  <g filter="url(#shadow)">
    <rect x="112" y="176" width="240" height="126" rx="28" fill="#fff" opacity=".92"/>
    <rect x="384" y="176" width="240" height="126" rx="28" fill="#fff" opacity=".88"/>
    <rect x="656" y="176" width="240" height="126" rx="28" fill="#fff" opacity=".92"/>
    <rect x="248" y="342" width="240" height="126" rx="28" fill="#fff" opacity=".88"/>
    <rect x="520" y="342" width="240" height="126" rx="28" fill="#fff" opacity=".92"/>
    <rect x="792" y="342" width="240" height="126" rx="28" fill="#fff" opacity=".88"/>
    <text x="172" y="254" font-family="Montserrat, Arial" font-size="30" font-weight="800" fill="#001c40">FESCO</text>
    <text x="438" y="254" font-family="Montserrat, Arial" font-size="30" font-weight="800" fill="#001c40">UDC</text>
    <text x="704" y="254" font-family="Montserrat, Arial" font-size="30" font-weight="800" fill="#001c40">PANOPTICA</text>
    <text x="306" y="420" font-family="Montserrat, Arial" font-size="28" font-weight="800" fill="#001c40">WENZ FC</text>
    <text x="578" y="420" font-family="Montserrat, Arial" font-size="28" font-weight="800" fill="#001c40">KACE</text>
    <text x="844" y="420" font-family="Montserrat, Arial" font-size="28" font-weight="800" fill="#001c40">LUMO</text>
  </g>
  <g font-family="Montserrat, Arial, sans-serif" fill="#fff">
    <text x="72" y="98" font-size="32" font-weight="800" letter-spacing="4">BRAND PARTNERS</text>
    <text x="72" y="142" font-size="20" opacity=".74">Client marks and campaign systems</text>
  </g>
</svg>
