<svg xmlns="http://www.w3.org/2000/svg" viewBox="0 0 1600 780" role="img" aria-label="Contact page artwork">
  <defs>
    <linearGradient id="bg" x1="0" y1="0" x2="1" y2="1"><stop offset="0" stop-color="#0059ff"/><stop offset=".55" stop-color="#0078ff"/><stop offset="1" stop-color="#002e98"/></linearGradient>
    <radialGradient id="glow" cx="72%" cy="40%" r="66%"><stop offset="0" stop-color="#49c8ff" stop-opacity=".45"/><stop offset="1" stop-color="#001438" stop-opacity="0"/></radialGradient>
    <filter id="shadow"><feDropShadow dx="0" dy="24" stdDeviation="20" flood-color="#001438" flood-opacity=".45"/></filter>
  </defs>
  <rect width="1600" height="780" fill="url(#bg)"/>
  <rect width="1600" height="780" fill="url(#glow)"/>
  <rect x="18" y="18" width="1564" height="744" fill="none" stroke="#00337f" stroke-width="2" opacity=".55"/>
  <g font-family="Montserrat, Arial, sans-serif" fill="#fff">
    <text x="92" y="166" font-size="15" font-weight="800" letter-spacing="5" opacity=".75">LET'S CREATE</text>
    <rect x="92" y="190" width="42" height="4" rx="2" fill="#6fdcff" opacity=".8"/>
    <text x="92" y="260" font-size="64" font-weight="800" letter-spacing="-2">Let's Work</text>
    <text x="92" y="328" font-size="64" font-weight="800" letter-spacing="-2">Together<tspan fill="#f9db2e">.</tspan></text>
    <text x="92" y="398" font-size="18" font-weight="700">Tell us about your project and let's</text>
    <text x="92" y="433" font-size="18" font-weight="700">bring your ideas to life.</text>
    <circle cx="116" cy="505" r="28" fill="#2aa8ff"/><text x="108" y="514" font-size="22">⌖</text><text x="164" y="512" font-size="18" font-weight="700">Accra, Ghana</text>
    <circle cx="116" cy="575" r="28" fill="#2aa8ff"/><text x="107" y="584" font-size="22">☎</text><text x="164" y="582" font-size="18" font-weight="700">+233 59 143 2316</text>
    <circle cx="116" cy="645" r="28" fill="#2aa8ff"/><text x="106" y="654" font-size="22">✉</text><text x="164" y="652" font-size="18" font-weight="700">hello@lumo.studio</text>
    <text x="92" y="722" font-size="20" font-weight="800">◎</text><text x="150" y="722" font-size="20" font-weight="800">Be</text><text x="218" y="722" font-size="20" font-weight="800">▶</text><text x="276" y="722" font-size="20" font-weight="800">in</text>
  </g>
  <g filter="url(#shadow)">
    <rect x="610" y="80" width="640" height="650" rx="28" fill="#0068ff" fill-opacity=".18" stroke="#fff" stroke-opacity=".28" stroke-width="2"/>
    <g font-family="Montserrat, Arial, sans-serif" fill="#fff">
      <text x="672" y="156" font-size="15" font-weight="800" letter-spacing="5" opacity=".75">SEND US A MESSAGE</text>
      <text x="672" y="232" font-size="18" font-weight="700">Your Name</text><line x1="672" y1="252" x2="1174" y2="252" stroke="#fff" opacity=".22"/>
      <text x="672" y="306" font-size="18" font-weight="700">Your Email</text><line x1="672" y1="326" x2="1174" y2="326" stroke="#fff" opacity=".22"/>
      <text x="672" y="380" font-size="18" font-weight="700">Project Type</text><text x="1160" y="380" font-size="20">⌄</text><line x1="672" y1="400" x2="1174" y2="400" stroke="#fff" opacity=".22"/>
      <text x="672" y="454" font-size="18" font-weight="700">Your Message</text><line x1="672" y1="568" x2="1174" y2="568" stroke="#fff" opacity=".22"/>
      <rect x="672" y="618" width="324" height="70" rx="35" fill="#fff"/><text x="746" y="662" font-size="15" font-weight="800" fill="#0044c8" letter-spacing="1.6">SEND MESSAGE →</text>
    </g>
    <g transform="translate(1260 170)">
      <rect x="70" y="90" width="220" height="150" rx="28" fill="#071532"/>
      <rect x="122" y="38" width="104" height="64" rx="20" fill="#0b2356"/>
      <circle cx="178" cy="166" r="62" fill="#020817"/>
      <circle cx="178" cy="166" r="38" fill="#0b4ac8"/>
      <circle cx="160" cy="150" r="15" fill="#65ddff"/>
      <rect x="154" y="244" width="42" height="230" rx="18" fill="#061532"/>
      <path d="M174 310L70 540M180 310l110 230M174 310v250" stroke="#061532" stroke-width="24" stroke-linecap="round"/>
    </g>
  </g>
</svg>
