<svg xmlns="http://www.w3.org/2000/svg" viewBox="0 0 1200 700" role="img" aria-label="Creative Solutions">
  <defs>
    <linearGradient id="bg" x1="0" y1="0" x2="1" y2="1"><stop offset="0" stop-color="#092b68"/><stop offset=".52" stop-color="#0057ff"/><stop offset="1" stop-color="#69d8ff"/></linearGradient>
    <radialGradient id="orb" cx="72%" cy="18%" r="60%"><stop offset="0" stop-color="#fddb3a" stop-opacity=".9"/><stop offset=".38" stop-color="#fddb3a" stop-opacity=".18"/><stop offset="1" stop-color="#fddb3a" stop-opacity="0"/></radialGradient>
    <filter id="shadow" x="-20%" y="-20%" width="140%" height="150%"><feDropShadow dx="0" dy="26" stdDeviation="24" flood-color="#00112a" flood-opacity=".42"/></filter>
  </defs>
  <rect width="1200" height="700" rx="64" fill="url(#bg)"/>
  <rect width="1200" height="700" rx="64" fill="url(#orb)"/>
  <circle cx="990" cy="120" r="78" fill="#fddb3a"/>
  <circle cx="1056" cy="566" r="180" fill="#ffffff" opacity=".08"/>
  <g filter="url(#shadow)">
    <rect x="504" y="158" width="428" height="270" rx="30" fill="#061532"/>
    <rect x="536" y="190" width="364" height="204" rx="18" fill="#ffffff" opacity=".94"/>
    <rect x="654" y="430" width="128" height="34" rx="12" fill="#061532"/>
    <rect x="600" y="464" width="236" height="24" rx="12" fill="#061532"/>
    <rect x="154" y="320" width="356" height="230" rx="40" fill="#071833"/>
    <circle cx="322" cy="435" r="92" fill="#020817"/>
    <circle cx="322" cy="435" r="58" fill="#0f4fb8"/>
    <circle cx="302" cy="410" r="22" fill="#70ddff"/>
    <rect x="220" y="260" width="136" height="66" rx="22" fill="#0b2148"/>
    <rect x="610" y="236" width="216" height="44" rx="12" fill="#0057ff"/>
    <rect x="610" y="302" width="160" height="20" rx="10" fill="#001c40" opacity=".42"/>
    <rect x="610" y="338" width="230" height="20" rx="10" fill="#001c40" opacity=".24"/>
  </g>
  <g font-family="Montserrat, Arial, sans-serif" fill="#fff">
    <text x="72" y="98" font-size="32" font-weight="800" letter-spacing="4">CREATIVE SOLUTIONS</text>
    <text x="72" y="142" font-size="20" opacity=".74">Design, motion, video, editing</text>
  </g>
</svg>
