<svg xmlns="http://www.w3.org/2000/svg" viewBox="0 0 1600 780" role="img" aria-label="Creative Solutions page artwork">
  <defs>
    <linearGradient id="bg" x1="0" y1="0" x2="1" y2="1"><stop offset="0" stop-color="#0059ff"/><stop offset=".5" stop-color="#0078ff"/><stop offset="1" stop-color="#002e98"/></linearGradient>
    <radialGradient id="glow" cx="72%" cy="44%" r="55%"><stop offset="0" stop-color="#49c8ff" stop-opacity=".85"/><stop offset=".45" stop-color="#0068ff" stop-opacity=".2"/><stop offset="1" stop-color="#001438" stop-opacity="0"/></radialGradient>
    <filter id="shadow"><feDropShadow dx="0" dy="28" stdDeviation="24" flood-color="#001438" flood-opacity=".45"/></filter>
  </defs>
  <rect width="1600" height="780" fill="url(#bg)"/>
  <rect width="1600" height="780" fill="url(#glow)"/>
  <rect x="18" y="18" width="1564" height="744" fill="none" stroke="#00337f" stroke-width="2" opacity=".55"/>
  <g font-family="Montserrat, Arial, sans-serif" fill="#fff">
    <text x="92" y="205" font-size="86" font-weight="800" letter-spacing="-4">Creative</text>
    <text x="92" y="292" font-size="86" font-weight="800" letter-spacing="-4">Solutions<tspan fill="#f9db2e">.</tspan></text>
    <rect x="92" y="334" width="56" height="4" rx="2" fill="#6fdcff" opacity=".8"/>
    <text x="92" y="392" font-size="18" font-weight="700">Graphic Design. Motion Graphics.</text>
    <text x="92" y="427" font-size="18" font-weight="700">Videography. Video Editing.</text>
    <text x="92" y="474" font-size="18" font-weight="700">We bring ideas to life with clarity,</text>
    <text x="92" y="509" font-size="18" font-weight="700">creativity and purpose.</text>
    <rect x="92" y="570" width="242" height="58" rx="29" fill="#fff"/>
    <text x="128" y="606" font-size="13" font-weight="800" fill="#0044c8" letter-spacing="1.5">VIEW OUR WORK →</text>
    <rect x="360" y="570" width="184" height="58" rx="29" fill="none" stroke="#fff" stroke-width="2" opacity=".85"/>
    <text x="397" y="606" font-size="13" font-weight="800" letter-spacing="1.5">GET IN TOUCH</text>
    <text x="92" y="706" font-size="20" font-weight="800">◎</text><text x="150" y="706" font-size="20" font-weight="800">Be</text><text x="218" y="706" font-size="20" font-weight="800">▶</text><text x="276" y="706" font-size="20" font-weight="800">in</text>
    <text x="1450" y="682" font-size="14" font-weight="800" letter-spacing="3">SCROLL</text><line x1="1488" y1="704" x2="1488" y2="752" stroke="#fff" stroke-width="2" opacity=".85"/>
  </g>
  <g filter="url(#shadow)">
    <path d="M910 128h442c44 0 73 30 66 69l-70 343c-6 31-37 56-74 56H825c-44 0-73-30-65-69l70-343c6-31 37-56 80-56z" fill="#071532"/>
    <path d="M934 168h392c28 0 46 19 41 44l-52 255c-4 21-25 38-50 38H873c-29 0-47-20-42-44l52-255c4-21 25-38 51-38z" fill="#0068ff"/>
    <text x="1035" y="348" font-family="Montserrat, Arial" font-size="74" font-weight="600" fill="#fff" opacity=".9">LUMO</text><circle cx="1260" cy="340" r="23" fill="#f9db2e"/>
    <ellipse cx="980" cy="622" rx="430" ry="32" fill="#001438" opacity=".32"/>
    <rect x="530" y="375" width="330" height="228" rx="34" fill="#071532"/>
    <rect x="600" y="312" width="150" height="76" rx="28" fill="#0b2356"/>
    <circle cx="680" cy="494" r="110" fill="#020817"/>
    <circle cx="680" cy="494" r="72" fill="#0b4ac8"/>
    <circle cx="650" cy="462" r="24" fill="#65ddff" opacity=".9"/>
    <text x="658" y="360" font-family="Arial" font-size="28" font-weight="700" fill="#fff">SONY</text>
  </g>
</svg>
