<svg xmlns="http://www.w3.org/2000/svg" viewBox="0 0 1200 700" role="img" aria-label="Portfolio Spread">
  <defs>
    <linearGradient id="bg" x1="0" y1="0" x2="1" y2="1"><stop offset="0" stop-color="#092b68"/><stop offset=".52" stop-color="#0057ff"/><stop offset="1" stop-color="#69d8ff"/></linearGradient>
    <radialGradient id="orb" cx="72%" cy="18%" r="60%"><stop offset="0" stop-color="#fddb3a" stop-opacity=".9"/><stop offset=".38" stop-color="#fddb3a" stop-opacity=".18"/><stop offset="1" stop-color="#fddb3a" stop-opacity="0"/></radialGradient>
    <filter id="shadow" x="-20%" y="-20%" width="140%" height="150%"><feDropShadow dx="0" dy="26" stdDeviation="24" flood-color="#00112a" flood-opacity=".42"/></filter>
  </defs>
  <rect width="1200" height="700" rx="64" fill="url(#bg)"/>
  <rect width="1200" height="700" rx="64" fill="url(#orb)"/>
  <circle cx="990" cy="120" r="78" fill="#fddb3a"/>
  <circle cx="1056" cy="566" r="180" fill="#ffffff" opacity=".08"/>
  <g filter="url(#shadow)">
    <rect x="102" y="176" width="250" height="214" rx="32" fill="#fff" opacity=".95"/>
    <rect x="398" y="120" width="306" height="248" rx="34" fill="#061532"/>
    <rect x="746" y="174" width="322" height="302" rx="34" fill="#fff" opacity=".94"/>
    <rect x="152" y="230" width="150" height="88" rx="22" fill="#0057ff"/>
    <circle cx="550" cy="244" r="78" fill="#fddb3a"/>
    <rect x="818" y="240" width="178" height="38" rx="19" fill="#0057ff"/>
    <rect x="818" y="308" width="138" height="22" rx="11" fill="#061532" opacity=".34"/>
    <rect x="166" y="430" width="700" height="96" rx="28" fill="#ffffff" opacity=".16"/>
    <rect x="216" y="462" width="180" height="28" rx="14" fill="#fff" opacity=".7"/>
    <rect x="430" y="462" width="260" height="28" rx="14" fill="#fff" opacity=".4"/>
  </g>
  <g font-family="Montserrat, Arial, sans-serif" fill="#fff">
    <text x="72" y="98" font-size="32" font-weight="800" letter-spacing="4">PORTFOLIO SPREAD</text>
    <text x="72" y="142" font-size="20" opacity=".74">Packaging, print, motion, video</text>
  </g>
</svg>
